<?xml version="1.0" encoding="UTF-8" standalone="no"?>
<svg
   version="1.1"
   x="0px"
   y="0px"
   viewBox="0 0 99.999999 100"
   xml:space="preserve"
   id="svg219"
   sodipodi:docname="favicon.svg"
   width="100"
   height="100"
   inkscape:version="1.1.2 (0a00cf5339, 2022-02-04)"
   xmlns:inkscape="http://www.inkscape.org/namespaces/inkscape"
   xmlns:sodipodi="http://sodipodi.sourceforge.net/DTD/sodipodi-0.dtd"
   xmlns="http://www.w3.org/2000/svg"
   xmlns:svg="http://www.w3.org/2000/svg">
<sodipodi:namedview
   id="namedview221"
   pagecolor="#ffffff"
   bordercolor="#666666"
   borderopacity="1.0"
   inkscape:pageshadow="2"
   inkscape:pageopacity="0.0"
   inkscape:pagecheckerboard="0"
   showgrid="false"
   inkscape:zoom="4.8818656"
   inkscape:cx="56.228504"
   inkscape:cy="39.636486"
   inkscape:window-width="1846"
   inkscape:window-height="1016"
   inkscape:window-x="74"
   inkscape:window-y="27"
   inkscape:window-maximized="1"
   inkscape:current-layer="svg219"
   width="100px"
   fit-margin-top="0"
   fit-margin-left="0"
   fit-margin-right="0"
   fit-margin-bottom="0" />
<style
   type="text/css"
   id="style133">
	.st0{fill:#3560AB;}
	.st1{fill:#ED1C24;}
	.st2{fill:none;}
	.st3{fill:#FFFFFF;}
	.st4{fill:#231F20;}
</style>
<g
   id="g565"
   transform="matrix(0.17539551,0,0,0.17539551,100.9733,-26.639007)"><circle
     class="st0"
     cx="-290.6192"
     cy="436.94965"
     r="285.07001"
     id="circle135" /><path
     class="st1"
     d="m -294.79921,332.91962 c -9.31,-11.64 -22.05,-24.53 -27.65,-25.73 -5.6,-1.2 -22.89,-9.52 -27.88,-9.52 -4.99,0 -25.61,-1.33 -28.6,-0.67 -2.99,0.67 -20.62,4.99 -23.28,7.32 -2.66,2.33 -13.97,9.64 -15.3,11.97 -1.33,2.33 -9.64,12.64 -10.31,18.95 -0.67,6.32 -1.66,21.95 0,28.27 1.66,6.32 15.63,23.61 17.96,26.27 2.33,2.66 26.6,16.63 37.24,21.28 10.64,4.66 37.91,11.97 47.89,19.29 9.98,7.32 21.28,13.97 25.27,19.62 3.99,5.65 7.95,8.92 7.95,8.92 0,0 5.35,-10.92 14.33,-14.91 8.98,-3.99 27.93,-17.96 27.93,-17.96 l 29.26,-12.64 c 0,0 27.6,-10.31 31.92,-13.3 4.32,-2.99 16.96,-12.3 16.96,-12.3 0,0 10.26,-14.59 11.31,-17.96 2.15,-6.96 3.33,-19.95 3.33,-20.95 0,-8.31 -3.31,-19.62 -6.98,-24.94 -3.67,-5.32 -10.31,-13.89 -15.3,-16.75 -4.99,-2.87 -10.97,-6.19 -23.28,-7.86 -12.3,-1.66 -22.28,-0.67 -28.27,0 -5.99,0.67 -28.6,9.31 -29.93,9.98 -1.33,0.67 -20.12,11.97 -22.61,14.63 -2.48,2.68 -11.96,8.99 -11.96,8.99 z"
     id="path137" /><g
     id="g163"
     transform="translate(-790.95921,-27.560376)">
			<path
   class="st3"
   d="m 400.73,605.47 c -30.7,0 -59.86,-10.23 -79.81,-22.51 l -11.26,37.35 c 18.42,12.28 54.74,22 88,22 49.53,0 83.5,-17.07 102.51,-42.43 19,25.36 52.98,42.43 102.51,42.43 33.26,0 69.58,-9.72 88,-22 l -11.26,-37.35 c -19.95,12.28 -49.12,22.51 -79.81,22.51 -45.54,0 -72.14,-24.05 -72.14,-58.84 0,-32.23 18.42,-50.65 64.98,-68.56 56.28,-19.95 91.07,-49.12 91.07,-97.72 0,-53.72 -44.51,-93.63 -111.53,-93.63 -32.11,0 -56.17,11.9 -71.81,19.67 -15.64,-7.77 -39.7,-19.67 -71.81,-19.67 -67.02,0 -111.54,39.91 -111.54,93.63 0,48.6 34.79,77.77 91.07,97.72 46.56,17.91 64.98,36.33 64.98,68.56 -0.01,34.79 -26.62,58.84 -72.15,58.84 z M 430.4,441.75 c -47.58,-18.42 -68.56,-34.28 -68.56,-66.51 0,-23.53 17.91,-51.67 64.98,-51.67 31.21,0 55.71,18.3 65.18,30.44 l 5.82,7.15 7.81,-6.98 c 12.64,-9.48 36.02,-26.94 67.23,-26.94 47.07,0 61.63,25.68 61.63,49.22 0,32.23 -16.99,46.88 -64.57,65.3 -31.87,12.3 -55.17,26.29 -69.76,44.71 -14.59,-18.43 -37.89,-32.42 -69.76,-44.72 z"
   id="path159" />
			<path
   class="st4"
   d="m 602.67,647.3 c -55.62,0 -86.14,-20.41 -102.51,-39.45 -16.37,19.04 -46.89,39.45 -102.51,39.45 -33.27,0 -70.6,-9.39 -90.77,-22.84 l -3.08,-2.06 14.2,-47.12 5.53,3.4 c 22.15,13.63 51.01,21.77 77.19,21.77 41.41,0 67.14,-20.63 67.14,-53.84 0,-29.62 -16.15,-46.33 -61.71,-63.87 -30.62,-10.86 -53.01,-23.71 -68.46,-39.29 -17.17,-17.31 -25.88,-38.55 -25.88,-63.13 0,-27.76 11.5,-52.89 32.38,-70.76 21.31,-18.23 50.41,-27.87 84.15,-27.87 31.81,0 56.41,11.47 71.81,19.09 15.4,-7.61 40,-19.09 71.81,-19.09 33.75,0 62.85,9.64 84.15,27.87 20.88,17.87 32.38,43 32.38,70.76 0,24.57 -8.71,45.81 -25.88,63.13 -15.45,15.57 -37.84,28.42 -68.46,39.29 -45.56,17.53 -61.71,34.25 -61.71,63.87 0,33.21 25.73,53.84 67.14,53.84 26.19,0 55.04,-8.14 77.19,-21.77 l 5.53,-3.41 14.2,47.12 -3.08,2.06 c -20.15,13.46 -57.48,22.85 -90.75,22.85 z m -102.51,-55.76 4,5.34 c 19.82,26.45 53.88,40.43 98.5,40.43 29.33,0 62.99,-7.97 82.11,-19.21 l -8.32,-27.62 c -23,12.76 -50.64,19.99 -76.86,19.99 -46.86,0 -77.14,-25.06 -77.14,-63.84 0,-33.82 19.12,-54.35 68.18,-73.23 l 0.12,-0.05 c 59.86,-21.22 87.74,-50.78 87.74,-93.01 0,-52.18 -43.81,-88.63 -106.53,-88.63 -31.04,0 -54.23,11.52 -69.58,19.15 l -2.22,1.1 -2.22,-1.1 c -15.35,-7.62 -38.55,-19.15 -69.58,-19.15 -62.73,0 -106.54,36.45 -106.54,88.63 0,42.23 27.88,71.79 87.74,93.01 l 0.12,0.05 c 49.07,18.87 68.18,39.4 68.18,73.23 0,38.78 -30.28,63.84 -77.14,63.84 -26.22,0 -53.86,-7.24 -76.86,-19.99 l -8.32,27.62 c 19.12,11.24 52.79,19.21 82.11,19.21 44.62,0 78.69,-13.98 98.5,-40.43 z m 0,-97.03 -3.92,-4.95 C 482.97,472.81 461.47,459.1 428.6,446.41 v 0 c -46.54,-18.01 -71.75,-34.69 -71.75,-71.17 0,-14.3 5.97,-28.25 16.37,-38.26 12.51,-12.04 31.04,-18.41 53.61,-18.41 34.64,0 60.32,21.12 69.09,32.32 l 2.48,3.05 4.24,-3.77 c 13.02,-9.76 37.25,-27.94 70.23,-27.94 22.86,0 40.35,5.79 51.97,17.22 12.12,11.91 14.66,26.69 14.66,37 0,17.82 -4.92,30.59 -15.94,41.4 -10.05,9.85 -25.54,18.39 -51.82,28.56 -32.88,12.69 -54.37,26.4 -67.65,43.16 z m -67.95,-57.43 c 31.63,12.21 53.42,25.54 67.96,41.64 14.53,-16.1 36.33,-29.43 67.96,-41.64 47.61,-18.43 61.37,-32.03 61.37,-60.64 0,-13.29 -5.52,-44.22 -56.63,-44.22 -29.51,0 -51.93,16.71 -64.06,25.81 l -11.56,10.33 -9.19,-11.29 c -7.7,-9.86 -30.41,-28.52 -61.24,-28.52 -29.85,0 -59.98,14.43 -59.98,46.67 0,27.68 15.89,42.71 65.37,61.86 z"
   id="path161" />
		</g></g><circle
   transform="rotate(-13.285796)"
   cx="-317.17047"
   cy="-23.293142"
   id="ellipse165"
   r="0"
   style="stroke-width:0.999963" /><circle
   transform="rotate(-9.2183636)"
   cx="364.70724"
   cy="109.62997"
   id="ellipse167"
   r="0"
   style="stroke-width:1.00002" />
<g
   id="Layer_3"
   transform="translate(-465.69991,-415.77185)">
</g>
</svg>
